<svg width="39" height="14" viewBox="0 0 39 14" fill="none" xmlns="http://www.w3.org/2000/svg">
<path d="M22.8848 8.92119C22.873 8.93259 22.8639 8.94642 22.858 8.96172C22.8521 8.97703 22.8496 8.99343 22.8507 9.00978L23.3619 12.1312L23.5936 13.5351C23.6054 13.609 23.5963 13.6846 23.5674 13.7536C23.5385 13.8225 23.4908 13.882 23.4298 13.9252C23.3688 13.9685 23.2969 13.9938 23.2223 13.9983C23.1477 14.0029 23.0733 13.9864 23.0075 13.9509L19.1705 11.8245C19.1555 11.8177 19.1392 11.8143 19.1228 11.8143C19.1063 11.8143 19.0901 11.8177 19.0751 11.8245L15.2381 13.9509C15.1723 13.9864 15.0979 14.0029 15.0233 13.9983C14.9486 13.9938 14.8768 13.9685 14.8158 13.9252C14.7548 13.882 14.7071 13.8225 14.6782 13.7536C14.6492 13.6846 14.6402 13.609 14.652 13.5351L14.8769 12.1312L15.388 9.00978C15.3916 8.99392 15.3909 8.97741 15.3862 8.96187C15.3814 8.94633 15.3726 8.93231 15.3608 8.92119L12.2189 5.69757C12.168 5.64543 12.1324 5.58021 12.1161 5.50913C12.0999 5.43805 12.1036 5.36386 12.1269 5.29476C12.1502 5.22566 12.1921 5.16433 12.248 5.11755C12.3039 5.07077 12.3717 5.04036 12.4438 5.02967L14.9791 4.6412H14.9859L16.7715 4.36859C16.7873 4.36581 16.8023 4.35945 16.8153 4.35C16.8283 4.34055 16.839 4.32826 16.8465 4.31407L18.7616 0.224908C18.7948 0.157417 18.8462 0.100574 18.91 0.0608227C18.9739 0.0210711 19.0476 0 19.1228 0C19.198 0 19.2717 0.0210711 19.3356 0.0608227C19.3994 0.100574 19.4508 0.157417 19.484 0.224908L21.3991 4.31407C21.4067 4.32826 21.4173 4.34055 21.4303 4.35C21.4433 4.35945 21.4583 4.36581 21.4741 4.36859L23.2597 4.6412H23.2665L25.8018 5.02967C25.8739 5.04036 25.9417 5.07077 25.9976 5.11755C26.0535 5.16433 26.0955 5.22566 26.1187 5.29476C26.142 5.36386 26.1457 5.43805 26.1295 5.50913C26.1132 5.58021 26.0777 5.64543 26.0267 5.69757L22.8848 8.92119Z" fill="#1F2232"/>
<path d="M32.2218 7.23784L29.005 9.54822C28.9925 9.55461 28.982 9.56438 28.9748 9.57643C28.9676 9.58848 28.9639 9.60232 28.9641 9.61637L28.9369 11.7632L28.9096 13.651C28.9098 13.7167 28.8914 13.781 28.8565 13.8367C28.8217 13.8924 28.7718 13.937 28.7127 13.9655C28.6535 13.994 28.5875 14.0052 28.5223 13.9978C28.457 13.9904 28.3952 13.9647 28.3439 13.9236L25.3384 11.4974C25.3292 11.4871 25.3168 11.4802 25.3033 11.4777C25.2897 11.4753 25.2757 11.4774 25.2634 11.4838L24.6705 11.6882L24.3025 9.41873L27.0013 6.65173C27.2285 6.42081 27.3874 6.13165 27.4606 5.81614C27.5338 5.50063 27.5185 5.17103 27.4162 4.86369C27.314 4.55635 27.1289 4.28321 26.8813 4.07439C26.6338 3.86557 26.3333 3.72918 26.0131 3.68028L25.2294 3.5576L26.7628 1.38353C26.8008 1.32949 26.8534 1.28739 26.9144 1.26216C26.9755 1.23692 27.0425 1.22959 27.1075 1.24103C27.1726 1.25247 27.2331 1.28221 27.2818 1.32675C27.3306 1.3713 27.3657 1.42882 27.383 1.49258L28.194 4.48448L28.4257 5.32957C28.4289 5.3428 28.4357 5.35489 28.4453 5.36451C28.4549 5.37413 28.467 5.38091 28.4802 5.38409L32.1264 6.61766C32.1879 6.63826 32.2424 6.67539 32.2842 6.72496C32.3259 6.77452 32.3532 6.83463 32.3631 6.89868C32.3729 6.96273 32.365 7.02826 32.3401 7.08808C32.3151 7.14791 32.2742 7.19972 32.2218 7.23784Z" fill="#1F2232"/>
<path d="M38.0761 8.16469L34.8525 9.92984C34.8409 9.93733 34.8312 9.94737 34.8241 9.95918C34.817 9.97099 34.8127 9.98427 34.8116 9.99799L34.3072 13.7055C34.2988 13.7654 34.2738 13.8217 34.2351 13.8682C34.1964 13.9146 34.1456 13.9494 34.0882 13.9685C34.0308 13.9876 33.9693 13.9903 33.9104 13.9764C33.8516 13.9624 33.7978 13.9323 33.7552 13.8895L31.2608 11.3133C31.2523 11.3041 31.2415 11.2973 31.2295 11.2937C31.2175 11.2901 31.2048 11.2898 31.1926 11.2929L30.3066 11.4769L30.3203 10.2774L33.0123 8.34188C33.2681 8.15834 33.4683 7.90781 33.5909 7.61785C33.7135 7.32788 33.7538 7.00972 33.7073 6.69834C33.6608 6.38697 33.5294 6.09445 33.3274 5.85296C33.1254 5.61146 32.8607 5.43035 32.5625 5.32954L31.2471 4.88654L33.7143 2.16044C33.7555 2.11533 33.8087 2.08283 33.8677 2.0667C33.9267 2.05058 33.989 2.05148 34.0475 2.0693C34.1059 2.08713 34.1582 2.12116 34.1981 2.16744C34.238 2.21372 34.264 2.27037 34.2731 2.33082L34.7979 5.9838C34.7992 5.9966 34.8036 6.00888 34.8107 6.01958C34.8179 6.03028 34.8275 6.03906 34.8388 6.04514L38.0625 7.5922C38.1161 7.61765 38.1616 7.65749 38.194 7.70729C38.2263 7.75709 38.2442 7.81489 38.2456 7.87425C38.247 7.93361 38.2319 7.99219 38.202 8.04347C38.172 8.09475 38.1285 8.13672 38.0761 8.16469Z" fill="#1F2232"/>
<path d="M7.92536 10.2774L7.93899 11.4769L7.053 11.2929C7.04086 11.2898 7.0281 11.2901 7.01609 11.2937C7.00409 11.2973 6.99329 11.3041 6.98485 11.3133L4.49046 13.8895C4.44779 13.9323 4.39402 13.9624 4.3352 13.9764C4.27637 13.9903 4.21482 13.9876 4.15747 13.9684C4.10011 13.9493 4.04923 13.9146 4.01053 13.8681C3.97184 13.8217 3.94687 13.7654 3.93843 13.7055L3.4341 9.99799C3.43293 9.98427 3.42863 9.97099 3.42155 9.95918C3.41446 9.94737 3.40477 9.93733 3.39321 9.92984L0.169585 8.16469C0.11721 8.13672 0.07363 8.09475 0.043703 8.04347C0.0137759 7.99219 -0.00132244 7.93361 9.08597e-05 7.87425C0.00150416 7.81489 0.0193734 7.75709 0.0517071 7.70729C0.0840408 7.65749 0.129569 7.61765 0.183216 7.5922L3.40684 6.04514C3.41816 6.03906 3.42782 6.03028 3.43495 6.01958C3.44208 6.00888 3.44647 5.9966 3.44773 5.9838L3.9725 2.33082C3.98158 2.27037 4.00759 2.21372 4.04753 2.16744C4.08747 2.12116 4.1397 2.08713 4.19817 2.0693C4.25665 2.05148 4.31897 2.05058 4.37794 2.0667C4.4369 2.08283 4.4901 2.11533 4.53135 2.16044L6.99848 4.88654L5.68313 5.32954C5.38489 5.43035 5.12022 5.61146 4.91824 5.85296C4.71626 6.09445 4.58479 6.38697 4.53829 6.69834C4.4918 7.00972 4.53208 7.32788 4.6547 7.61785C4.77732 7.90781 4.97754 8.15834 5.23333 8.34188L7.92536 10.2774Z" fill="#1F2232"/>
<path d="M11.2443 6.65173L13.9431 9.41873L13.5751 11.6882L12.9822 11.4838C12.9699 11.4774 12.9559 11.4753 12.9423 11.4777C12.9288 11.4802 12.9164 11.4871 12.9072 11.4974L9.90166 13.9236C9.85041 13.9647 9.78859 13.9904 9.72335 13.9978C9.65811 14.0052 9.5921 13.994 9.53294 13.9655C9.47379 13.937 9.42391 13.8924 9.38906 13.8367C9.35421 13.781 9.33581 13.7167 9.33599 13.651L9.30873 11.7632L9.28147 9.61637C9.28172 9.60232 9.27802 9.58848 9.27079 9.57643C9.26356 9.56438 9.25309 9.55461 9.24058 9.54822L6.02377 7.23784C5.97137 7.19972 5.93047 7.14791 5.90555 7.08808C5.88064 7.02826 5.87267 6.96273 5.88252 6.89868C5.89238 6.83463 5.91967 6.77452 5.96142 6.72496C6.00316 6.67539 6.05774 6.63826 6.11919 6.61766L9.76535 5.38409C9.77858 5.38091 9.79067 5.37413 9.80029 5.36451C9.80991 5.35489 9.81669 5.3428 9.81988 5.32957L10.0516 4.48448L10.8626 1.49258C10.8799 1.42882 10.915 1.3713 10.9638 1.32675C11.0125 1.28221 11.073 1.25247 11.1381 1.24103C11.2031 1.22959 11.2701 1.23692 11.3312 1.26216C11.3922 1.28739 11.4448 1.32949 11.4828 1.38353L13.0162 3.5576L12.2325 3.68028C11.9123 3.72918 11.6119 3.86557 11.3643 4.07439C11.1167 4.28321 10.9316 4.55635 10.8294 4.86369C10.7271 5.17103 10.7118 5.50063 10.785 5.81614C10.8582 6.13165 11.0172 6.42081 11.2443 6.65173Z" fill="#1F2232"/>
</svg>
